<?xml version="1.0" encoding="utf-8"?>
<!-- Generator: Adobe Illustrator 19.0.0, SVG Export Plug-In . SVG Version: 6.00 Build 0)  -->
<svg version="1.1" id="Layer_1" xmlns="http://www.w3.org/2000/svg" xmlns:xlink="http://www.w3.org/1999/xlink" x="0px" y="0px"
	 viewBox="-213 496.9 140 140" style="enable-background:new -213 496.9 140 140;" xml:space="preserve">
<style type="text/css">
	.st0{fill:#50B2E5;}
	.st1{fill:#FFCC33;}
</style>
<g>
	<circle class="st0" cx="-143" cy="566.9" r="70"/>
	<g>
		<path class="st1" d="M-143,545.5c-11.8,0-21.4,9.6-21.4,21.4s9.6,21.4,21.4,21.4s21.4-9.6,21.4-21.4S-131.2,545.5-143,545.5z"/>
		<g>
			<path class="st1" d="M-143,527.2c-1.7,0-3.1,1.4-3.1,3.1v6.1c0,1.7,1.4,3.1,3.1,3.1s3.1-1.4,3.1-3.1v-6.1
				C-139.9,528.6-141.3,527.2-143,527.2z"/>
			<path class="st1" d="M-143,594.4c-1.7,0-3.1,1.4-3.1,3.1v6.1c0,1.7,1.4,3.1,3.1,3.1s3.1-1.4,3.1-3.1v-6.1
				C-139.9,595.7-141.3,594.4-143,594.4z"/>
		</g>
		<g>
			<path class="st1" d="M-115,538.9c-1.2-1.2-3.1-1.2-4.3,0l-4.3,4.3c-1.2,1.2-1.2,3.1,0,4.3c1.2,1.2,3.1,1.2,4.3,0l4.3-4.3
				C-113.8,542-113.8,540-115,538.9z"/>
			<path class="st1" d="M-162.4,586.3c-1.2-1.2-3.1-1.2-4.3,0l-4.3,4.3c-1.2,1.2-1.2,3.1,0,4.3s3.1,1.2,4.3,0l4.3-4.3
				C-161.2,589.4-161.2,587.5-162.4,586.3z"/>
		</g>
		<g>
			<path class="st1" d="M-182.7,566.9c0,1.7,1.4,3.1,3.1,3.1h6.1c1.7,0,3.1-1.4,3.1-3.1s-1.4-3.1-3.1-3.1h-6.1
				C-181.3,563.8-182.7,565.2-182.7,566.9z"/>
			<path class="st1" d="M-115.5,566.9c0,1.7,1.4,3.1,3.1,3.1h6.1c1.7,0,3.1-1.4,3.1-3.1s-1.4-3.1-3.1-3.1h-6.1
				C-114.2,563.8-115.5,565.2-115.5,566.9z"/>
		</g>
		<g>
			<path class="st1" d="M-171,538.9c-1.2,1.2-1.2,3.1,0,4.3l4.3,4.3c1.2,1.2,3.1,1.2,4.3,0c1.2-1.2,1.2-3.1,0-4.3l-4.3-4.3
				C-167.9,537.7-169.9,537.7-171,538.9z"/>
			<path class="st1" d="M-123.6,586.3c-1.2,1.2-1.2,3.1,0,4.3l4.3,4.3c1.2,1.2,3.1,1.2,4.3,0c1.2-1.2,1.2-3.1,0-4.3l-4.3-4.3
				C-120.5,585.1-122.4,585.1-123.6,586.3z"/>
		</g>
	</g>
</g>
</svg>
