<?xml version="1.0" encoding="utf-8"?>
<!-- Generator: Adobe Illustrator 19.0.0, SVG Export Plug-In . SVG Version: 6.00 Build 0)  -->
<svg version="1.1" id="Layer_1" xmlns="http://www.w3.org/2000/svg" xmlns:xlink="http://www.w3.org/1999/xlink" x="0px" y="0px"
	 viewBox="0 0 140 140" style="enable-background:new 0 0 140 140;" xml:space="preserve">
<style type="text/css">
	.st0{fill:#50B2E5;}
	.st1{fill-rule:evenodd;clip-rule:evenodd;fill:#FFFFFF;}
</style>
<g>
	<circle class="st0" cx="69.8" cy="70.4" r="70"/>
	<g>
		<path class="st1" d="M92.2,40.5c-0.8,0-1.6,0.1-2.5,0.2c-4.7-6.3-12-10.1-20-10.1c-8,0-15.3,3.8-20,10.1c-0.8-0.1-1.6-0.2-2.5-0.2
			c-9.6,0-17.5,7.8-17.5,17.5c0,9.6,7.8,17.5,17.5,17.5c2.1,0,4.2-0.4,6.2-1.1c4.5,3.9,10.3,6.1,16.3,6.1c6,0,11.7-2.2,16.3-6.1
			c2,0.8,4.1,1.1,6.2,1.1c9.6,0,17.5-7.8,17.5-17.5C109.7,48.3,101.8,40.5,92.2,40.5z"/>
		<path class="st1" d="M64.9,105.3c0,2.8,2.2,5,5,5c2.8,0,5-2.2,5-5c0-2.8-5-10-5-10S64.9,102.5,64.9,105.3z"/>
		<path class="st1" d="M84.7,100.3c0,2.8,2.2,5,5,5c2.8,0,5-2.2,5-5c0-2.8-5-10-5-10S84.7,97.5,84.7,100.3z"/>
		<path class="st1" d="M44.8,90.3c0,2.8,2.2,5,5,5c2.8,0,5-2.2,5-5c0-2.8-5-10-5-10S44.8,87.6,44.8,90.3z"/>
	</g>
</g>
</svg>
